<svg class="rich-terminal" viewBox="0 0 1190 830.8" xmlns="http://www.w3.org/2000/svg">
    <!-- Generated with Rich https://www.textualize.io -->
    <style>

    @font-face {
        font-family: "Fira Code";
        src: local("FiraCode-Regular"),
                url("https://cdnjs.cloudflare.com/ajax/libs/firacode/6.2.0/woff2/FiraCode-Regular.woff2") format("woff2"),
                url("https://cdnjs.cloudflare.com/ajax/libs/firacode/6.2.0/woff/FiraCode-Regular.woff") format("woff");
        font-style: normal;
        font-weight: 400;
    }
    @font-face {
        font-family: "Fira Code";
        src: local("FiraCode-Bold"),
                url("https://cdnjs.cloudflare.com/ajax/libs/firacode/6.2.0/woff2/FiraCode-Bold.woff2") format("woff2"),
                url("https://cdnjs.cloudflare.com/ajax/libs/firacode/6.2.0/woff/FiraCode-Bold.woff") format("woff");
        font-style: bold;
        font-weight: 700;
    }

    .terminal-2713890665-matrix {
        font-family: Fira Code, monospace;
        font-size: 20px;
        line-height: 24.4px;
        font-variant-east-asian: full-width;
    }

    .terminal-2713890665-title {
        font-size: 18px;
        font-weight: bold;
        font-family: arial;
    }

    .terminal-2713890665-r1 { fill: #c5c8c6 }
.terminal-2713890665-r2 { fill: #9d624c;font-weight: bold }
.terminal-2713890665-r3 { fill: #df8a6a;font-weight: bold }
.terminal-2713890665-r4 { fill: #121212 }
.terminal-2713890665-r5 { fill: #cc785c }
.terminal-2713890665-r6 { fill: #e08a6a;font-weight: bold }
.terminal-2713890665-r7 { fill: #1a0f0b;font-weight: bold }
.terminal-2713890665-r8 { fill: #563226;font-weight: bold }
.terminal-2713890665-r9 { fill: #e6e0d8;font-weight: bold }
.terminal-2713890665-r10 { fill: #a19b95 }
.terminal-2713890665-r11 { fill: #e6e0d8 }
.terminal-2713890665-r12 { fill: #a19b95;font-style: italic; }
.terminal-2713890665-r13 { fill: #e0b070 }
.terminal-2713890665-r14 { fill: #a4a2a1 }
.terminal-2713890665-r15 { fill: #767271 }
    </style>

    <defs>
    <clipPath id="terminal-2713890665-clip-terminal">
      <rect x="0" y="0" width="1170.1999999999998" height="779.8" />
    </clipPath>
    <clipPath id="terminal-2713890665-line-0">
    <rect x="0" y="1.5" width="1171.2" height="24.65"/>
            </clipPath>
<clipPath id="terminal-2713890665-line-1">
    <rect x="0" y="25.9" width="1171.2" height="24.65"/>
            </clipPath>
<clipPath id="terminal-2713890665-line-2">
    <rect x="0" y="50.3" width="1171.2" height="24.65"/>
            </clipPath>
<clipPath id="terminal-2713890665-line-3">
    <rect x="0" y="74.7" width="1171.2" height="24.65"/>
            </clipPath>
<clipPath id="terminal-2713890665-line-4">
    <rect x="0" y="99.1" width="1171.2" height="24.65"/>
            </clipPath>
<clipPath id="terminal-2713890665-line-5">
    <rect x="0" y="123.5" width="1171.2" height="24.65"/>
            </clipPath>
<clipPath id="terminal-2713890665-line-6">
    <rect x="0" y="147.9" width="1171.2" height="24.65"/>
            </clipPath>
<clipPath id="terminal-2713890665-line-7">
    <rect x="0" y="172.3" width="1171.2" height="24.65"/>
            </clipPath>
<clipPath id="terminal-2713890665-line-8">
    <rect x="0" y="196.7" width="1171.2" height="24.65"/>
            </clipPath>
<clipPath id="terminal-2713890665-line-9">
    <rect x="0" y="221.1" width="1171.2" height="24.65"/>
            </clipPath>
<clipPath id="terminal-2713890665-line-10">
    <rect x="0" y="245.5" width="1171.2" height="24.65"/>
            </clipPath>
<clipPath id="terminal-2713890665-line-11">
    <rect x="0" y="269.9" width="1171.2" height="24.65"/>
            </clipPath>
<clipPath id="terminal-2713890665-line-12">
    <rect x="0" y="294.3" width="1171.2" height="24.65"/>
            </clipPath>
<clipPath id="terminal-2713890665-line-13">
    <rect x="0" y="318.7" width="1171.2" height="24.65"/>
            </clipPath>
<clipPath id="terminal-2713890665-line-14">
    <rect x="0" y="343.1" width="1171.2" height="24.65"/>
            </clipPath>
<clipPath id="terminal-2713890665-line-15">
    <rect x="0" y="367.5" width="1171.2" height="24.65"/>
            </clipPath>
<clipPath id="terminal-2713890665-line-16">
    <rect x="0" y="391.9" width="1171.2" height="24.65"/>
            </clipPath>
<clipPath id="terminal-2713890665-line-17">
    <rect x="0" y="416.3" width="1171.2" height="24.65"/>
            </clipPath>
<clipPath id="terminal-2713890665-line-18">
    <rect x="0" y="440.7" width="1171.2" height="24.65"/>
            </clipPath>
<clipPath id="terminal-2713890665-line-19">
    <rect x="0" y="465.1" width="1171.2" height="24.65"/>
            </clipPath>
<clipPath id="terminal-2713890665-line-20">
    <rect x="0" y="489.5" width="1171.2" height="24.65"/>
            </clipPath>
<clipPath id="terminal-2713890665-line-21">
    <rect x="0" y="513.9" width="1171.2" height="24.65"/>
            </clipPath>
<clipPath id="terminal-2713890665-line-22">
    <rect x="0" y="538.3" width="1171.2" height="24.65"/>
            </clipPath>
<clipPath id="terminal-2713890665-line-23">
    <rect x="0" y="562.7" width="1171.2" height="24.65"/>
            </clipPath>
<clipPath id="terminal-2713890665-line-24">
    <rect x="0" y="587.1" width="1171.2" height="24.65"/>
            </clipPath>
<clipPath id="terminal-2713890665-line-25">
    <rect x="0" y="611.5" width="1171.2" height="24.65"/>
            </clipPath>
<clipPath id="terminal-2713890665-line-26">
    <rect x="0" y="635.9" width="1171.2" height="24.65"/>
            </clipPath>
<clipPath id="terminal-2713890665-line-27">
    <rect x="0" y="660.3" width="1171.2" height="24.65"/>
            </clipPath>
<clipPath id="terminal-2713890665-line-28">
    <rect x="0" y="684.7" width="1171.2" height="24.65"/>
            </clipPath>
<clipPath id="terminal-2713890665-line-29">
    <rect x="0" y="709.1" width="1171.2" height="24.65"/>
            </clipPath>
<clipPath id="terminal-2713890665-line-30">
    <rect x="0" y="733.5" width="1171.2" height="24.65"/>
            </clipPath>
    </defs>

    <rect fill="#292929" stroke="rgba(255,255,255,0.35)" stroke-width="1" x="1" y="1" width="1188" height="828.8" rx="8"/><text class="terminal-2713890665-title" fill="#c5c8c6" text-anchor="middle" x="594" y="27">agent-output-tracer</text>
            <g transform="translate(26,22)">
            <circle cx="0" cy="0" r="7" fill="#ff5f57"/>
            <circle cx="22" cy="0" r="7" fill="#febc2e"/>
            <circle cx="44" cy="0" r="7" fill="#28c840"/>
            </g>
        
    <g transform="translate(9, 41)" clip-path="url(#terminal-2713890665-clip-terminal)">
    <rect fill="#1d1714" x="0" y="1.5" width="12.2" height="24.65" shape-rendering="crispEdges"/><rect fill="#1d1714" x="12.2" y="1.5" width="231.8" height="24.65" shape-rendering="crispEdges"/><rect fill="#1d1714" x="244" y="1.5" width="61" height="24.65" shape-rendering="crispEdges"/><rect fill="#1d1714" x="305" y="1.5" width="97.6" height="24.65" shape-rendering="crispEdges"/><rect fill="#1d1714" x="402.6" y="1.5" width="756.4" height="24.65" shape-rendering="crispEdges"/><rect fill="#1d1714" x="1159" y="1.5" width="12.2" height="24.65" shape-rendering="crispEdges"/><rect fill="#121212" x="0" y="25.9" width="1171.2" height="24.65" shape-rendering="crispEdges"/><rect fill="#121212" x="0" y="50.3" width="24.4" height="24.65" shape-rendering="crispEdges"/><rect fill="#121212" x="24.4" y="50.3" width="1122.4" height="24.65" shape-rendering="crispEdges"/><rect fill="#121212" x="1146.8" y="50.3" width="24.4" height="24.65" shape-rendering="crispEdges"/><rect fill="#121212" x="0" y="74.7" width="24.4" height="24.65" shape-rendering="crispEdges"/><rect fill="#121212" x="24.4" y="74.7" width="1122.4" height="24.65" shape-rendering="crispEdges"/><rect fill="#121212" x="1146.8" y="74.7" width="24.4" height="24.65" shape-rendering="crispEdges"/><rect fill="#121212" x="0" y="99.1" width="24.4" height="24.65" shape-rendering="crispEdges"/><rect fill="#121212" x="24.4" y="99.1" width="1122.4" height="24.65" shape-rendering="crispEdges"/><rect fill="#121212" x="1146.8" y="99.1" width="24.4" height="24.65" shape-rendering="crispEdges"/><rect fill="#121212" x="0" y="123.5" width="24.4" height="24.65" shape-rendering="crispEdges"/><rect fill="#121212" x="24.4" y="123.5" width="1122.4" height="24.65" shape-rendering="crispEdges"/><rect fill="#121212" x="1146.8" y="123.5" width="24.4" height="24.65" shape-rendering="crispEdges"/><rect fill="#121212" x="0" y="147.9" width="24.4" height="24.65" shape-rendering="crispEdges"/><rect fill="#121212" x="24.4" y="147.9" width="1122.4" height="24.65" shape-rendering="crispEdges"/><rect fill="#121212" x="1146.8" y="147.9" width="24.4" height="24.65" shape-rendering="crispEdges"/><rect fill="#121212" x="0" y="172.3" width="24.4" height="24.65" shape-rendering="crispEdges"/><rect fill="#121212" x="24.4" y="172.3" width="1122.4" height="24.65" shape-rendering="crispEdges"/><rect fill="#121212" x="1146.8" y="172.3" width="24.4" height="24.65" shape-rendering="crispEdges"/><rect fill="#121212" x="0" y="196.7" width="24.4" height="24.65" shape-rendering="crispEdges"/><rect fill="#121212" x="24.4" y="196.7" width="1122.4" height="24.65" shape-rendering="crispEdges"/><rect fill="#121212" x="1146.8" y="196.7" width="24.4" height="24.65" shape-rendering="crispEdges"/><rect fill="#121212" x="0" y="221.1" width="24.4" height="24.65" shape-rendering="crispEdges"/><rect fill="#121212" x="24.4" y="221.1" width="1122.4" height="24.65" shape-rendering="crispEdges"/><rect fill="#121212" x="1146.8" y="221.1" width="24.4" height="24.65" shape-rendering="crispEdges"/><rect fill="#121212" x="0" y="245.5" width="24.4" height="24.65" shape-rendering="crispEdges"/><rect fill="#121212" x="24.4" y="245.5" width="1122.4" height="24.65" shape-rendering="crispEdges"/><rect fill="#121212" x="1146.8" y="245.5" width="24.4" height="24.65" shape-rendering="crispEdges"/><rect fill="#121212" x="0" y="269.9" width="24.4" height="24.65" shape-rendering="crispEdges"/><rect fill="#cc785c" x="24.4" y="269.9" width="12.2" height="24.65" shape-rendering="crispEdges"/><rect fill="#27211d" x="36.6" y="269.9" width="1098" height="24.65" shape-rendering="crispEdges"/><rect fill="#121212" x="1134.6" y="269.9" width="12.2" height="24.65" shape-rendering="crispEdges"/><rect fill="#121212" x="1146.8" y="269.9" width="24.4" height="24.65" shape-rendering="crispEdges"/><rect fill="#121212" x="0" y="294.3" width="24.4" height="24.65" shape-rendering="crispEdges"/><rect fill="#cc785c" x="24.4" y="294.3" width="12.2" height="24.65" shape-rendering="crispEdges"/><rect fill="#27211d" x="36.6" y="294.3" width="12.2" height="24.65" shape-rendering="crispEdges"/><rect fill="#cc785c" x="48.8" y="294.3" width="24.4" height="24.65" shape-rendering="crispEdges"/><rect fill="#cc785c" x="73.2" y="294.3" width="97.6" height="24.65" shape-rendering="crispEdges"/><rect fill="#cc785c" x="170.8" y="294.3" width="951.6" height="24.65" shape-rendering="crispEdges"/><rect fill="#27211d" x="1122.4" y="294.3" width="12.2" height="24.65" shape-rendering="crispEdges"/><rect fill="#121212" x="1134.6" y="294.3" width="12.2" height="24.65" shape-rendering="crispEdges"/><rect fill="#121212" x="1146.8" y="294.3" width="24.4" height="24.65" shape-rendering="crispEdges"/><rect fill="#121212" x="0" y="318.7" width="24.4" height="24.65" shape-rendering="crispEdges"/><rect fill="#cc785c" x="24.4" y="318.7" width="12.2" height="24.65" shape-rendering="crispEdges"/><rect fill="#27211d" x="36.6" y="318.7" width="12.2" height="24.65" shape-rendering="crispEdges"/><rect fill="#cc785c" x="48.8" y="318.7" width="24.4" height="24.65" shape-rendering="crispEdges"/><rect fill="#cc785c" x="73.2" y="318.7" width="134.2" height="24.65" shape-rendering="crispEdges"/><rect fill="#cc785c" x="207.4" y="318.7" width="36.6" height="24.65" shape-rendering="crispEdges"/><rect fill="#cc785c" x="244" y="318.7" width="97.6" height="24.65" shape-rendering="crispEdges"/><rect fill="#cc785c" x="341.6" y="318.7" width="36.6" height="24.65" shape-rendering="crispEdges"/><rect fill="#cc785c" x="378.2" y="318.7" width="97.6" height="24.65" shape-rendering="crispEdges"/><rect fill="#cc785c" x="475.8" y="318.7" width="646.6" height="24.65" shape-rendering="crispEdges"/><rect fill="#27211d" x="1122.4" y="318.7" width="12.2" height="24.65" shape-rendering="crispEdges"/><rect fill="#121212" x="1134.6" y="318.7" width="12.2" height="24.65" shape-rendering="crispEdges"/><rect fill="#121212" x="1146.8" y="318.7" width="24.4" height="24.65" shape-rendering="crispEdges"/><rect fill="#121212" x="0" y="343.1" width="24.4" height="24.65" shape-rendering="crispEdges"/><rect fill="#cc785c" x="24.4" y="343.1" width="12.2" height="24.65" shape-rendering="crispEdges"/><rect fill="#27211d" x="36.6" y="343.1" width="1098" height="24.65" shape-rendering="crispEdges"/><rect fill="#121212" x="1134.6" y="343.1" width="12.2" height="24.65" shape-rendering="crispEdges"/><rect fill="#121212" x="1146.8" y="343.1" width="24.4" height="24.65" shape-rendering="crispEdges"/><rect fill="#121212" x="0" y="367.5" width="24.4" height="24.65" shape-rendering="crispEdges"/><rect fill="#1d1714" x="24.4" y="367.5" width="1122.4" height="24.65" shape-rendering="crispEdges"/><rect fill="#121212" x="1146.8" y="367.5" width="24.4" height="24.65" shape-rendering="crispEdges"/><rect fill="#121212" x="0" y="391.9" width="24.4" height="24.65" shape-rendering="crispEdges"/><rect fill="#1d1714" x="24.4" y="391.9" width="12.2" height="24.65" shape-rendering="crispEdges"/><rect fill="#1d1714" x="36.6" y="391.9" width="183" height="24.65" shape-rendering="crispEdges"/><rect fill="#1d1714" x="219.6" y="391.9" width="915" height="24.65" shape-rendering="crispEdges"/><rect fill="#1d1714" x="1134.6" y="391.9" width="12.2" height="24.65" shape-rendering="crispEdges"/><rect fill="#121212" x="1146.8" y="391.9" width="24.4" height="24.65" shape-rendering="crispEdges"/><rect fill="#121212" x="0" y="416.3" width="24.4" height="24.65" shape-rendering="crispEdges"/><rect fill="#1d1714" x="24.4" y="416.3" width="12.2" height="24.65" shape-rendering="crispEdges"/><rect fill="#1d1714" x="36.6" y="416.3" width="109.8" height="24.65" shape-rendering="crispEdges"/><rect fill="#1d1714" x="146.4" y="416.3" width="134.2" height="24.65" shape-rendering="crispEdges"/><rect fill="#1d1714" x="280.6" y="416.3" width="109.8" height="24.65" shape-rendering="crispEdges"/><rect fill="#1d1714" x="390.4" y="416.3" width="231.8" height="24.65" shape-rendering="crispEdges"/><rect fill="#1d1714" x="622.2" y="416.3" width="97.6" height="24.65" shape-rendering="crispEdges"/><rect fill="#1d1714" x="719.8" y="416.3" width="329.4" height="24.65" shape-rendering="crispEdges"/><rect fill="#1d1714" x="1049.2" y="416.3" width="85.4" height="24.65" shape-rendering="crispEdges"/><rect fill="#1d1714" x="1134.6" y="416.3" width="12.2" height="24.65" shape-rendering="crispEdges"/><rect fill="#121212" x="1146.8" y="416.3" width="24.4" height="24.65" shape-rendering="crispEdges"/><rect fill="#121212" x="0" y="440.7" width="24.4" height="24.65" shape-rendering="crispEdges"/><rect fill="#1d1714" x="24.4" y="440.7" width="12.2" height="24.65" shape-rendering="crispEdges"/><rect fill="#1d1714" x="36.6" y="440.7" width="109.8" height="24.65" shape-rendering="crispEdges"/><rect fill="#1d1714" x="146.4" y="440.7" width="12.2" height="24.65" shape-rendering="crispEdges"/><rect fill="#1d1714" x="158.6" y="440.7" width="158.6" height="24.65" shape-rendering="crispEdges"/><rect fill="#1d1714" x="317.2" y="440.7" width="85.4" height="24.65" shape-rendering="crispEdges"/><rect fill="#1d1714" x="402.6" y="440.7" width="122" height="24.65" shape-rendering="crispEdges"/><rect fill="#1d1714" x="524.6" y="440.7" width="48.8" height="24.65" shape-rendering="crispEdges"/><rect fill="#1d1714" x="573.4" y="440.7" width="561.2" height="24.65" shape-rendering="crispEdges"/><rect fill="#1d1714" x="1134.6" y="440.7" width="12.2" height="24.65" shape-rendering="crispEdges"/><rect fill="#121212" x="1146.8" y="440.7" width="24.4" height="24.65" shape-rendering="crispEdges"/><rect fill="#121212" x="0" y="465.1" width="24.4" height="24.65" shape-rendering="crispEdges"/><rect fill="#1d1714" x="24.4" y="465.1" width="12.2" height="24.65" shape-rendering="crispEdges"/><rect fill="#1d1714" x="36.6" y="465.1" width="109.8" height="24.65" shape-rendering="crispEdges"/><rect fill="#1d1714" x="146.4" y="465.1" width="976" height="24.65" shape-rendering="crispEdges"/><rect fill="#1d1714" x="1122.4" y="465.1" width="12.2" height="24.65" shape-rendering="crispEdges"/><rect fill="#1d1714" x="1134.6" y="465.1" width="12.2" height="24.65" shape-rendering="crispEdges"/><rect fill="#121212" x="1146.8" y="465.1" width="24.4" height="24.65" shape-rendering="crispEdges"/><rect fill="#121212" x="0" y="489.5" width="24.4" height="24.65" shape-rendering="crispEdges"/><rect fill="#1d1714" x="24.4" y="489.5" width="12.2" height="24.65" shape-rendering="crispEdges"/><rect fill="#1d1714" x="36.6" y="489.5" width="244" height="24.65" shape-rendering="crispEdges"/><rect fill="#1d1714" x="280.6" y="489.5" width="854" height="24.65" shape-rendering="crispEdges"/><rect fill="#1d1714" x="1134.6" y="489.5" width="12.2" height="24.65" shape-rendering="crispEdges"/><rect fill="#121212" x="1146.8" y="489.5" width="24.4" height="24.65" shape-rendering="crispEdges"/><rect fill="#121212" x="0" y="513.9" width="24.4" height="24.65" shape-rendering="crispEdges"/><rect fill="#121212" x="24.4" y="513.9" width="1122.4" height="24.65" shape-rendering="crispEdges"/><rect fill="#121212" x="1146.8" y="513.9" width="24.4" height="24.65" shape-rendering="crispEdges"/><rect fill="#121212" x="0" y="538.3" width="24.4" height="24.65" shape-rendering="crispEdges"/><rect fill="#121212" x="24.4" y="538.3" width="1122.4" height="24.65" shape-rendering="crispEdges"/><rect fill="#121212" x="1146.8" y="538.3" width="24.4" height="24.65" shape-rendering="crispEdges"/><rect fill="#121212" x="0" y="562.7" width="24.4" height="24.65" shape-rendering="crispEdges"/><rect fill="#121212" x="24.4" y="562.7" width="1122.4" height="24.65" shape-rendering="crispEdges"/><rect fill="#121212" x="1146.8" y="562.7" width="24.4" height="24.65" shape-rendering="crispEdges"/><rect fill="#121212" x="0" y="587.1" width="24.4" height="24.65" shape-rendering="crispEdges"/><rect fill="#121212" x="24.4" y="587.1" width="1122.4" height="24.65" shape-rendering="crispEdges"/><rect fill="#121212" x="1146.8" y="587.1" width="24.4" height="24.65" shape-rendering="crispEdges"/><rect fill="#121212" x="0" y="611.5" width="24.4" height="24.65" shape-rendering="crispEdges"/><rect fill="#121212" x="24.4" y="611.5" width="1122.4" height="24.65" shape-rendering="crispEdges"/><rect fill="#121212" x="1146.8" y="611.5" width="24.4" height="24.65" shape-rendering="crispEdges"/><rect fill="#121212" x="0" y="635.9" width="24.4" height="24.65" shape-rendering="crispEdges"/><rect fill="#121212" x="24.4" y="635.9" width="1122.4" height="24.65" shape-rendering="crispEdges"/><rect fill="#121212" x="1146.8" y="635.9" width="24.4" height="24.65" shape-rendering="crispEdges"/><rect fill="#121212" x="0" y="660.3" width="24.4" height="24.65" shape-rendering="crispEdges"/><rect fill="#121212" x="24.4" y="660.3" width="1122.4" height="24.65" shape-rendering="crispEdges"/><rect fill="#121212" x="1146.8" y="660.3" width="24.4" height="24.65" shape-rendering="crispEdges"/><rect fill="#121212" x="0" y="684.7" width="24.4" height="24.65" shape-rendering="crispEdges"/><rect fill="#121212" x="24.4" y="684.7" width="1122.4" height="24.65" shape-rendering="crispEdges"/><rect fill="#121212" x="1146.8" y="684.7" width="24.4" height="24.65" shape-rendering="crispEdges"/><rect fill="#121212" x="0" y="709.1" width="24.4" height="24.65" shape-rendering="crispEdges"/><rect fill="#121212" x="24.4" y="709.1" width="1122.4" height="24.65" shape-rendering="crispEdges"/><rect fill="#121212" x="1146.8" y="709.1" width="24.4" height="24.65" shape-rendering="crispEdges"/><rect fill="#121212" x="0" y="733.5" width="1171.2" height="24.65" shape-rendering="crispEdges"/><rect fill="#1d1714" x="0" y="757.9" width="12.2" height="24.65" shape-rendering="crispEdges"/><rect fill="#1d1714" x="12.2" y="757.9" width="24.4" height="24.65" shape-rendering="crispEdges"/><rect fill="#1d1714" x="36.6" y="757.9" width="12.2" height="24.65" shape-rendering="crispEdges"/><rect fill="#1d1714" x="48.8" y="757.9" width="73.2" height="24.65" shape-rendering="crispEdges"/><rect fill="#1d1714" x="122" y="757.9" width="36.6" height="24.65" shape-rendering="crispEdges"/><rect fill="#1d1714" x="158.6" y="757.9" width="61" height="24.65" shape-rendering="crispEdges"/><rect fill="#1d1714" x="219.6" y="757.9" width="12.2" height="24.65" shape-rendering="crispEdges"/><rect fill="#1d1714" x="231.8" y="757.9" width="97.6" height="24.65" shape-rendering="crispEdges"/><rect fill="#1d1714" x="329.4" y="757.9" width="36.6" height="24.65" shape-rendering="crispEdges"/><rect fill="#1d1714" x="366" y="757.9" width="61" height="24.65" shape-rendering="crispEdges"/><rect fill="#1d1714" x="427" y="757.9" width="12.2" height="24.65" shape-rendering="crispEdges"/><rect fill="#1d1714" x="439.2" y="757.9" width="158.6" height="24.65" shape-rendering="crispEdges"/><rect fill="#1d1714" x="597.8" y="757.9" width="36.6" height="24.65" shape-rendering="crispEdges"/><rect fill="#1d1714" x="634.4" y="757.9" width="12.2" height="24.65" shape-rendering="crispEdges"/><rect fill="#1d1714" x="646.6" y="757.9" width="12.2" height="24.65" shape-rendering="crispEdges"/><rect fill="#1d1714" x="658.8" y="757.9" width="73.2" height="24.65" shape-rendering="crispEdges"/><rect fill="#1d1714" x="732" y="757.9" width="36.6" height="24.65" shape-rendering="crispEdges"/><rect fill="#1d1714" x="768.6" y="757.9" width="36.6" height="24.65" shape-rendering="crispEdges"/><rect fill="#1d1714" x="805.2" y="757.9" width="12.2" height="24.65" shape-rendering="crispEdges"/><rect fill="#1d1714" x="817.4" y="757.9" width="48.8" height="24.65" shape-rendering="crispEdges"/><rect fill="#1d1714" x="866.2" y="757.9" width="292.8" height="24.65" shape-rendering="crispEdges"/><rect fill="#1d1714" x="1159" y="757.9" width="12.2" height="24.65" shape-rendering="crispEdges"/>
    <g class="terminal-2713890665-matrix">
    <text class="terminal-2713890665-r2" x="12.2" y="20" textLength="231.8" clip-path="url(#terminal-2713890665-line-0)">agent-output-tracer</text><text class="terminal-2713890665-r2" x="244" y="20" textLength="61" clip-path="url(#terminal-2713890665-line-0)">&#160;&#160;·&#160;&#160;</text><text class="terminal-2713890665-r3" x="305" y="20" textLength="97.6" clip-path="url(#terminal-2713890665-line-0)">sessions</text><text class="terminal-2713890665-r1" x="1171.2" y="20" textLength="12.2" clip-path="url(#terminal-2713890665-line-0)">
</text><text class="terminal-2713890665-r1" x="1171.2" y="44.4" textLength="12.2" clip-path="url(#terminal-2713890665-line-1)">
</text><text class="terminal-2713890665-r1" x="1171.2" y="68.8" textLength="12.2" clip-path="url(#terminal-2713890665-line-2)">
</text><text class="terminal-2713890665-r1" x="1171.2" y="93.2" textLength="12.2" clip-path="url(#terminal-2713890665-line-3)">
</text><text class="terminal-2713890665-r1" x="1171.2" y="117.6" textLength="12.2" clip-path="url(#terminal-2713890665-line-4)">
</text><text class="terminal-2713890665-r1" x="1171.2" y="142" textLength="12.2" clip-path="url(#terminal-2713890665-line-5)">
</text><text class="terminal-2713890665-r1" x="1171.2" y="166.4" textLength="12.2" clip-path="url(#terminal-2713890665-line-6)">
</text><text class="terminal-2713890665-r1" x="1171.2" y="190.8" textLength="12.2" clip-path="url(#terminal-2713890665-line-7)">
</text><text class="terminal-2713890665-r1" x="1171.2" y="215.2" textLength="12.2" clip-path="url(#terminal-2713890665-line-8)">
</text><text class="terminal-2713890665-r1" x="1171.2" y="239.6" textLength="12.2" clip-path="url(#terminal-2713890665-line-9)">
</text><text class="terminal-2713890665-r1" x="1171.2" y="264" textLength="12.2" clip-path="url(#terminal-2713890665-line-10)">
</text><text class="terminal-2713890665-r4" x="24.4" y="288.4" textLength="12.2" clip-path="url(#terminal-2713890665-line-11)">▊</text><text class="terminal-2713890665-r5" x="36.6" y="288.4" textLength="1098" clip-path="url(#terminal-2713890665-line-11)">▔▔▔▔▔▔▔▔▔▔▔▔▔▔▔▔▔▔▔▔▔▔▔▔▔▔▔▔▔▔▔▔▔▔▔▔▔▔▔▔▔▔▔▔▔▔▔▔▔▔▔▔▔▔▔▔▔▔▔▔▔▔▔▔▔▔▔▔▔▔▔▔▔▔▔▔▔▔▔▔▔▔▔▔▔▔▔▔▔▔</text><text class="terminal-2713890665-r5" x="1134.6" y="288.4" textLength="12.2" clip-path="url(#terminal-2713890665-line-11)">▎</text><text class="terminal-2713890665-r1" x="1171.2" y="288.4" textLength="12.2" clip-path="url(#terminal-2713890665-line-11)">
</text><text class="terminal-2713890665-r4" x="24.4" y="312.8" textLength="12.2" clip-path="url(#terminal-2713890665-line-12)">▊</text><text class="terminal-2713890665-r6" x="48.8" y="312.8" textLength="24.4" clip-path="url(#terminal-2713890665-line-12)">●&#160;</text><text class="terminal-2713890665-r7" x="73.2" y="312.8" textLength="97.6" clip-path="url(#terminal-2713890665-line-12)">demo-ses</text><text class="terminal-2713890665-r5" x="1134.6" y="312.8" textLength="12.2" clip-path="url(#terminal-2713890665-line-12)">▎</text><text class="terminal-2713890665-r1" x="1171.2" y="312.8" textLength="12.2" clip-path="url(#terminal-2713890665-line-12)">
</text><text class="terminal-2713890665-r4" x="24.4" y="337.2" textLength="12.2" clip-path="url(#terminal-2713890665-line-13)">▊</text><text class="terminal-2713890665-r8" x="73.2" y="337.2" textLength="134.2" clip-path="url(#terminal-2713890665-line-13)">claude-code</text><text class="terminal-2713890665-r8" x="207.4" y="337.2" textLength="36.6" clip-path="url(#terminal-2713890665-line-13)">&#160;·&#160;</text><text class="terminal-2713890665-r8" x="244" y="337.2" textLength="97.6" clip-path="url(#terminal-2713890665-line-13)">2&#160;events</text><text class="terminal-2713890665-r8" x="341.6" y="337.2" textLength="36.6" clip-path="url(#terminal-2713890665-line-13)">&#160;·&#160;</text><text class="terminal-2713890665-r8" x="378.2" y="337.2" textLength="97.6" clip-path="url(#terminal-2713890665-line-13)">10:14:12</text><text class="terminal-2713890665-r5" x="1134.6" y="337.2" textLength="12.2" clip-path="url(#terminal-2713890665-line-13)">▎</text><text class="terminal-2713890665-r1" x="1171.2" y="337.2" textLength="12.2" clip-path="url(#terminal-2713890665-line-13)">
</text><text class="terminal-2713890665-r4" x="24.4" y="361.6" textLength="12.2" clip-path="url(#terminal-2713890665-line-14)">▊</text><text class="terminal-2713890665-r5" x="36.6" y="361.6" textLength="1098" clip-path="url(#terminal-2713890665-line-14)">▁▁▁▁▁▁▁▁▁▁▁▁▁▁▁▁▁▁▁▁▁▁▁▁▁▁▁▁▁▁▁▁▁▁▁▁▁▁▁▁▁▁▁▁▁▁▁▁▁▁▁▁▁▁▁▁▁▁▁▁▁▁▁▁▁▁▁▁▁▁▁▁▁▁▁▁▁▁▁▁▁▁▁▁▁▁▁▁▁▁</text><text class="terminal-2713890665-r5" x="1134.6" y="361.6" textLength="12.2" clip-path="url(#terminal-2713890665-line-14)">▎</text><text class="terminal-2713890665-r1" x="1171.2" y="361.6" textLength="12.2" clip-path="url(#terminal-2713890665-line-14)">
</text><text class="terminal-2713890665-r1" x="1171.2" y="386" textLength="12.2" clip-path="url(#terminal-2713890665-line-15)">
</text><text class="terminal-2713890665-r9" x="36.6" y="410.4" textLength="183" clip-path="url(#terminal-2713890665-line-16)">demo-session-01</text><text class="terminal-2713890665-r1" x="1171.2" y="410.4" textLength="12.2" clip-path="url(#terminal-2713890665-line-16)">
</text><text class="terminal-2713890665-r10" x="36.6" y="434.8" textLength="109.8" clip-path="url(#terminal-2713890665-line-17)">&#160;&#160;engine&#160;</text><text class="terminal-2713890665-r11" x="146.4" y="434.8" textLength="134.2" clip-path="url(#terminal-2713890665-line-17)">claude-code</text><text class="terminal-2713890665-r10" x="280.6" y="434.8" textLength="109.8" clip-path="url(#terminal-2713890665-line-17)">&#160;&#160;&#160;&#160;span&#160;</text><text class="terminal-2713890665-r11" x="390.4" y="434.8" textLength="231.8" clip-path="url(#terminal-2713890665-line-17)">10:14:01&#160;→&#160;10:14:12</text><text class="terminal-2713890665-r10" x="622.2" y="434.8" textLength="97.6" clip-path="url(#terminal-2713890665-line-17)">&#160;&#160;&#160;&#160;cwd&#160;</text><text class="terminal-2713890665-r12" x="719.8" y="434.8" textLength="329.4" clip-path="url(#terminal-2713890665-line-17)">/Users/dev/work/api-service</text><text class="terminal-2713890665-r1" x="1171.2" y="434.8" textLength="12.2" clip-path="url(#terminal-2713890665-line-17)">
</text><text class="terminal-2713890665-r10" x="36.6" y="459.2" textLength="109.8" clip-path="url(#terminal-2713890665-line-18)">&#160;&#160;events&#160;</text><text class="terminal-2713890665-r11" x="146.4" y="459.2" textLength="12.2" clip-path="url(#terminal-2713890665-line-18)">2</text><text class="terminal-2713890665-r10" x="158.6" y="459.2" textLength="158.6" clip-path="url(#terminal-2713890665-line-18)">&#160;&#160;·&#160;&#160;prompts&#160;</text><text class="terminal-2713890665-r11" x="317.2" y="459.2" textLength="85.4" clip-path="url(#terminal-2713890665-line-18)">0u&#160;/&#160;0a</text><text class="terminal-2713890665-r10" x="402.6" y="459.2" textLength="122" clip-path="url(#terminal-2713890665-line-18)">&#160;&#160;·&#160;&#160;read&#160;</text><text class="terminal-2713890665-r11" x="524.6" y="459.2" textLength="48.8" clip-path="url(#terminal-2713890665-line-18)">2&#160;KB</text><text class="terminal-2713890665-r1" x="1171.2" y="459.2" textLength="12.2" clip-path="url(#terminal-2713890665-line-18)">
</text><text class="terminal-2713890665-r10" x="36.6" y="483.6" textLength="109.8" clip-path="url(#terminal-2713890665-line-19)">&#160;&#160;anom&#160;&#160;&#160;</text><text class="terminal-2713890665-r13" x="146.4" y="483.6" textLength="976" clip-path="url(#terminal-2713890665-line-19)">unmentioned_reads&#160;0&#160;·&#160;repeated_reads&#160;0&#160;·&#160;hallucination_candidates&#160;0&#160;·&#160;glob_burst</text><text class="terminal-2713890665-r1" x="1171.2" y="483.6" textLength="12.2" clip-path="url(#terminal-2713890665-line-19)">
</text><text class="terminal-2713890665-r13" x="36.6" y="508" textLength="244" clip-path="url(#terminal-2713890665-line-20)">0&#160;·&#160;routing_thrash&#160;0</text><text class="terminal-2713890665-r1" x="1171.2" y="508" textLength="12.2" clip-path="url(#terminal-2713890665-line-20)">
</text><text class="terminal-2713890665-r1" x="1171.2" y="532.4" textLength="12.2" clip-path="url(#terminal-2713890665-line-21)">
</text><text class="terminal-2713890665-r1" x="1171.2" y="556.8" textLength="12.2" clip-path="url(#terminal-2713890665-line-22)">
</text><text class="terminal-2713890665-r1" x="1171.2" y="581.2" textLength="12.2" clip-path="url(#terminal-2713890665-line-23)">
</text><text class="terminal-2713890665-r1" x="1171.2" y="605.6" textLength="12.2" clip-path="url(#terminal-2713890665-line-24)">
</text><text class="terminal-2713890665-r1" x="1171.2" y="630" textLength="12.2" clip-path="url(#terminal-2713890665-line-25)">
</text><text class="terminal-2713890665-r1" x="1171.2" y="654.4" textLength="12.2" clip-path="url(#terminal-2713890665-line-26)">
</text><text class="terminal-2713890665-r1" x="1171.2" y="678.8" textLength="12.2" clip-path="url(#terminal-2713890665-line-27)">
</text><text class="terminal-2713890665-r1" x="1171.2" y="703.2" textLength="12.2" clip-path="url(#terminal-2713890665-line-28)">
</text><text class="terminal-2713890665-r1" x="1171.2" y="727.6" textLength="12.2" clip-path="url(#terminal-2713890665-line-29)">
</text><text class="terminal-2713890665-r1" x="1171.2" y="752" textLength="12.2" clip-path="url(#terminal-2713890665-line-30)">
</text><text class="terminal-2713890665-r6" x="12.2" y="776.4" textLength="24.4" clip-path="url(#terminal-2713890665-line-31)">↑↓</text><text class="terminal-2713890665-r15" x="48.8" y="776.4" textLength="73.2" clip-path="url(#terminal-2713890665-line-31)">select</text><text class="terminal-2713890665-r6" x="158.6" y="776.4" textLength="61" clip-path="url(#terminal-2713890665-line-31)">enter</text><text class="terminal-2713890665-r15" x="231.8" y="776.4" textLength="97.6" clip-path="url(#terminal-2713890665-line-31)">timeline</text><text class="terminal-2713890665-r6" x="366" y="776.4" textLength="61" clip-path="url(#terminal-2713890665-line-31)">S/T/F</text><text class="terminal-2713890665-r15" x="439.2" y="776.4" textLength="158.6" clip-path="url(#terminal-2713890665-line-31)">stats/tl/find</text><text class="terminal-2713890665-r6" x="634.4" y="776.4" textLength="12.2" clip-path="url(#terminal-2713890665-line-31)">e</text><text class="terminal-2713890665-r15" x="658.8" y="776.4" textLength="73.2" clip-path="url(#terminal-2713890665-line-31)">export</text><text class="terminal-2713890665-r6" x="768.6" y="776.4" textLength="36.6" clip-path="url(#terminal-2713890665-line-31)">esc</text><text class="terminal-2713890665-r15" x="817.4" y="776.4" textLength="48.8" clip-path="url(#terminal-2713890665-line-31)">back</text>
    </g>
    </g>
</svg>
